<svg width="42" height="24" viewBox="0 0 42 24" fill="none" xmlns="http://www.w3.org/2000/svg">
<path d="M5 19L9.11057 13.4685C9.44551 13.0178 10.0858 12.9312 10.5285 13.2767L13.3724 15.4964C13.7942 15.8255 14.4002 15.7645 14.7478 15.3578L16.8391 12.9114C17.2447 12.4369 17.981 12.4459 18.375 12.93L21.7538 17.0828C22.1442 17.5627 22.8722 17.5765 23.2806 17.1119L31.1144 8.19948" stroke="black" stroke-width="1.7"/>
<path d="M32.7432 6.21944C32.9178 6.20536 33.0673 6.34328 33.0673 6.51847L33.0673 10.4626C33.0673 10.7168 32.771 10.8558 32.5755 10.6933L28.2505 7.09776C28.0437 6.92584 28.1501 6.58964 28.4182 6.56804L32.7432 6.21944Z" fill="black"/>
</svg>
