<svg width="16" height="16" viewBox="0 0 16 16" fill="none" xmlns="http://www.w3.org/2000/svg">
<g opacity="0.25">
<path d="M6 7.33334H4.66667V8.66668H6V7.33334ZM8.66667 7.33334H7.33333V8.66668H8.66667V7.33334ZM11.3333 7.33334H10V8.66668H11.3333V7.33334ZM12.6667 2.66668H12V1.33334H10.6667V2.66668H5.33333V1.33334H4V2.66668H3.33333C2.59333 2.66668 2.00667 3.26668 2.00667 4.00001L2 13.3333C2 13.687 2.14048 14.0261 2.39052 14.2762C2.64057 14.5262 2.97971 14.6667 3.33333 14.6667H12.6667C13.4 14.6667 14 14.0667 14 13.3333V4.00001C14 3.26668 13.4 2.66668 12.6667 2.66668ZM12.6667 13.3333H3.33333V6.00001H12.6667V13.3333Z" fill="black"/>
</g>
</svg>
