<svg width="20" height="20" viewBox="0 0 20 20" fill="none" xmlns="http://www.w3.org/2000/svg">
<path d="M15.8334 9.16666H6.5251L10.5918 5.1C10.9168 4.775 10.9168 4.24166 10.5918 3.91666C10.5147 3.83941 10.4231 3.77812 10.3223 3.7363C10.2215 3.69448 10.1134 3.67296 10.0043 3.67296C9.89513 3.67296 9.78706 3.69448 9.68625 3.7363C9.58544 3.77812 9.49386 3.83941 9.41677 3.91666L3.9251 9.40833C3.84785 9.48542 3.78656 9.577 3.74474 9.67781C3.70292 9.77862 3.6814 9.88669 3.6814 9.99583C3.6814 10.105 3.70292 10.213 3.74474 10.3138C3.78656 10.4147 3.84785 10.5062 3.9251 10.5833L9.41677 16.075C9.49392 16.1521 9.58551 16.2133 9.68632 16.2551C9.78712 16.2969 9.89516 16.3183 10.0043 16.3183C10.1134 16.3183 10.2214 16.2969 10.3222 16.2551C10.423 16.2133 10.5146 16.1521 10.5918 16.075C10.6689 15.9978 10.7301 15.9063 10.7719 15.8054C10.8136 15.7046 10.8351 15.5966 10.8351 15.4875C10.8351 15.3784 10.8136 15.2703 10.7719 15.1695C10.7301 15.0687 10.6689 14.9771 10.5918 14.9L6.5251 10.8333H15.8334C16.2918 10.8333 16.6668 10.4583 16.6668 10C16.6668 9.54166 16.2918 9.16666 15.8334 9.16666Z" fill="black"/>
</svg>
