<svg width="28" height="28" viewBox="0 0 28 28" fill="none" xmlns="http://www.w3.org/2000/svg">
<path d="M22.645 8.64498L17.01 3.00998C16.5784 2.57831 15.9834 2.33331 15.365 2.33331H7.00002C5.71669 2.33331 4.67835 3.38331 4.67835 4.66665L4.66669 23.3333C4.66669 24.6166 5.70502 25.6666 6.98835 25.6666H21C22.2834 25.6666 23.3334 24.6166 23.3334 23.3333V10.3016C23.3334 9.68331 23.0884 9.08831 22.645 8.64498ZM11.935 20.1716L9.46169 17.6983C9.35367 17.5903 9.26799 17.4621 9.20954 17.3209C9.15108 17.1798 9.121 17.0286 9.121 16.8758C9.121 16.7231 9.15108 16.5718 9.20954 16.4307C9.26799 16.2896 9.35367 16.1613 9.46169 16.0533C9.5697 15.9453 9.69793 15.8596 9.83905 15.8012C9.98018 15.7427 10.1314 15.7126 10.2842 15.7126C10.4369 15.7126 10.5882 15.7427 10.7293 15.8012C10.8704 15.8596 10.9987 15.9453 11.1067 16.0533L12.7517 17.6983L16.8817 13.5683C16.9897 13.4603 17.1179 13.3746 17.2591 13.3162C17.4002 13.2577 17.5514 13.2276 17.7042 13.2276C17.8569 13.2276 18.0082 13.2577 18.1493 13.3162C18.2904 13.3746 18.4187 13.4603 18.5267 13.5683C18.6347 13.6763 18.7204 13.8046 18.7788 13.9457C18.8373 14.0868 18.8674 14.2381 18.8674 14.3908C18.8674 14.5436 18.8373 14.6948 18.7788 14.8359C18.7204 14.9771 18.6347 15.1053 18.5267 15.2133L13.58 20.16C13.1367 20.6266 12.39 20.6266 11.935 20.1716ZM16.3334 10.5C15.6917 10.5 15.1667 9.97498 15.1667 9.33331V4.08331L21.5834 10.5H16.3334Z" fill="#14121F"/>
</svg>
