<svg width="16" height="16" viewBox="0 0 16 16" fill="none" xmlns="http://www.w3.org/2000/svg">
<path d="M14.464 13.4399L12.128 11.1199C13.952 8.78395 13.76 5.45595 11.664 3.35995C10.56 2.25595 9.08803 1.64795 7.52003 1.64795C5.95203 1.64795 4.48003 2.25595 3.37603 3.35995C2.27203 4.46395 1.66403 5.93595 1.66403 7.50395C1.66403 9.07195 2.27203 10.5439 3.37603 11.6479C4.48003 12.7519 5.95203 13.3599 7.52003 13.3599C8.81603 13.3599 10.096 12.9279 11.12 12.1119L13.44 14.4639C13.584 14.6079 13.76 14.6719 13.952 14.6719C14.144 14.6719 14.32 14.5919 14.464 14.4639C14.752 14.1919 14.752 13.7279 14.464 13.4399ZM11.936 7.50395C11.936 8.68795 11.472 9.79195 10.64 10.6239C9.80803 11.4559 8.68803 11.9199 7.52003 11.9199C6.35203 11.9199 5.23203 11.4559 4.40003 10.6239C3.56803 9.79195 3.10403 8.67195 3.10403 7.50395C3.10403 6.31995 3.56803 5.21595 4.40003 4.38395C5.23203 3.55195 6.35203 3.08795 7.52003 3.08795C8.70403 3.08795 9.80803 3.55195 10.64 4.38395C11.472 5.21595 11.936 6.31995 11.936 7.50395Z" fill="#14121F"/>
</svg>
