<svg width="42" height="24" viewBox="0 0 42 24" fill="none" xmlns="http://www.w3.org/2000/svg">
<g clip-path="url(#clip0)">
<path d="M21.0346 1.87976C24.2867 1.87976 26.9852 4.49794 26.9852 7.65319C26.9852 9.60004 25.9473 11.3455 24.4251 12.3525C26.9852 13.3595 29.061 15.4406 29.8913 18.0588C30.0297 18.5287 29.8221 18.9986 29.3378 19.1329C28.8534 19.2672 28.3691 19.0658 28.2307 18.5958C27.262 15.5077 24.2867 13.4266 21.0346 13.4266C17.7134 13.4266 14.7381 15.5077 13.7694 18.5958C13.631 19.0658 13.1467 19.2672 12.6623 19.1329C12.178 18.9986 11.9704 18.5287 12.1088 18.0588C12.9391 15.4406 15.0149 13.3595 17.575 12.3525C16.0528 11.3455 15.0149 9.60004 15.0149 7.65319C15.0149 4.49794 17.7134 1.87976 21.0346 1.87976ZM21.0346 3.62522C18.6821 3.62522 16.8139 5.4378 16.8139 7.65319C16.8139 9.93571 18.6821 11.7483 21.0346 11.7483C23.318 11.7483 25.1862 9.93571 25.1862 7.65319C25.1862 5.4378 23.318 3.62522 21.0346 3.62522Z" fill="black"/>
<path d="M33.6277 0C36.6722 0 39.2323 2.41678 39.2323 5.43776C39.2323 7.25035 38.3328 8.86154 36.9489 9.8014C39.3015 10.7413 41.1697 12.6881 41.9308 15.172C42.1384 15.5748 41.8616 16.0448 41.3773 16.179C40.8929 16.3804 40.4086 16.1119 40.2702 15.642C39.3707 12.8224 36.6722 10.8755 33.6277 10.8755C32.1055 10.8755 30.6524 11.3455 29.4069 12.2182C29.061 12.4867 28.5074 12.4196 28.2307 12.0168C27.8847 11.6811 28.0231 11.1441 28.369 10.8755C28.9918 10.4056 29.6145 10.0699 30.2372 9.8014C28.8534 8.86154 27.9539 7.25035 27.9539 5.43776C27.9539 2.41678 30.514 0 33.6277 0ZM33.6277 1.67832C31.4827 1.67832 29.7529 3.35664 29.7529 5.43776C29.7529 7.51888 31.4827 9.1972 33.6277 9.1972C35.7035 9.1972 37.4333 7.51888 37.4333 5.43776C37.4333 3.35664 35.7035 1.67832 33.6277 1.67832Z" fill="black"/>
<path d="M8.44144 1.67832C6.29647 1.67832 4.56665 3.35664 4.56665 5.43776C4.56665 7.51888 6.29647 9.1972 8.44144 9.1972C10.5172 9.1972 12.247 7.51888 12.247 5.43776C12.247 3.35664 10.5172 1.67832 8.44144 1.67832ZM13.6309 10.8755C13.9769 11.1441 14.1153 11.6811 13.7693 12.0168C13.4925 12.4196 12.939 12.4867 12.593 12.2182C11.3475 11.3455 9.89449 10.8755 8.44144 10.8755C5.32777 10.8755 2.62925 12.8224 1.72975 15.642C1.59136 16.1119 1.10701 16.3804 0.622663 16.179C0.138313 16.0448 -0.138458 15.5748 0.0691205 15.172C0.830241 12.6881 2.69845 10.7413 5.051 9.8014C3.66714 8.86154 2.76764 7.25035 2.76764 5.43776C2.76764 2.41678 5.32777 0 8.44144 0C11.4859 0 14.0461 2.41678 14.0461 5.43776C14.0461 7.25035 13.1466 8.86154 11.7627 9.8014C12.3854 10.0699 13.0082 10.4056 13.6309 10.8755Z" fill="black"/>
</g>
<defs>
<clipPath id="clip0">
<rect width="42" height="24" fill="white"/>
</clipPath>
</defs>
</svg>
