<svg width="16" height="16" viewBox="0 0 16 16" fill="none" xmlns="http://www.w3.org/2000/svg">
<g opacity="0.25">
<path d="M7.99331 1.33333C4.31331 1.33333 1.33331 4.31999 1.33331 8C1.33331 11.68 4.31331 14.6667 7.99331 14.6667C11.68 14.6667 14.6666 11.68 14.6666 8C14.6666 4.31999 11.68 1.33333 7.99331 1.33333ZM7.99998 13.3333C5.05331 13.3333 2.66665 10.9467 2.66665 8C2.66665 5.05333 5.05331 2.66666 7.99998 2.66666C10.9466 2.66666 13.3333 5.05333 13.3333 8C13.3333 10.9467 10.9466 13.3333 7.99998 13.3333Z" fill="black"/>
<path d="M8.33331 4.66667H7.33331V8.66667L10.8333 10.7667L11.3333 9.94667L8.33331 8.16667V4.66667Z" fill="black"/>
</g>
</svg>
