<svg width="28" height="28" viewBox="0 0 28 28" fill="none" xmlns="http://www.w3.org/2000/svg">
<path fill-rule="evenodd" clip-rule="evenodd" d="M19.4482 15.3193C21.0466 16.4043 22.1666 17.8743 22.1666 19.8343V23.3343H26.8332V19.8343C26.8332 17.291 22.6682 15.786 19.4482 15.3193Z" fill="#14121F"/>
<path d="M10.5003 13.999C13.0776 13.999 15.167 11.9096 15.167 9.33232C15.167 6.75499 13.0776 4.66565 10.5003 4.66565C7.92296 4.66565 5.83362 6.75499 5.83362 9.33232C5.83362 11.9096 7.92296 13.999 10.5003 13.999Z" fill="#14121F"/>
<path fill-rule="evenodd" clip-rule="evenodd" d="M17.4997 13.999C20.078 13.999 22.1664 11.9106 22.1664 9.33232C22.1664 6.75398 20.078 4.66565 17.4997 4.66565C16.9514 4.66565 16.438 4.78232 15.948 4.94565C16.952 6.18724 17.4997 7.73562 17.4997 9.33232C17.4997 10.929 16.952 12.4774 15.948 13.719C16.438 13.8823 16.9514 13.999 17.4997 13.999ZM10.4997 15.1656C7.38472 15.1656 1.16638 16.729 1.16638 19.8323V23.3323H19.833V19.8323C19.833 16.729 13.6147 15.1656 10.4997 15.1656Z" fill="#14121F"/>
</svg>
