<svg width="9" height="6" viewBox="0 0 9 6" fill="none" xmlns="http://www.w3.org/2000/svg">
<path d="M1.69333 1.19334L4.28 3.78L6.86666 1.19334C6.92838 1.13162 7.00166 1.08266 7.0823 1.04925C7.16294 1.01585 7.24938 0.998657 7.33666 0.998657C7.42395 0.998657 7.51038 1.01585 7.59102 1.04925C7.67167 1.08266 7.74494 1.13162 7.80666 1.19334C7.86838 1.25506 7.91734 1.32833 7.95075 1.40898C7.98415 1.48962 8.00134 1.57605 8.00134 1.66334C8.00134 1.75062 7.98415 1.83706 7.95075 1.9177C7.91734 1.99834 7.86838 2.07162 7.80666 2.13334L4.74666 5.19334C4.48666 5.45334 4.06666 5.45334 3.80666 5.19334L0.746663 2.13334C0.684861 2.07166 0.635829 1.9984 0.602375 1.91775C0.568921 1.8371 0.551701 1.75065 0.551701 1.66334C0.551701 1.57603 0.568921 1.48957 0.602375 1.40892C0.635829 1.32827 0.684861 1.25501 0.746663 1.19334C1.00666 0.940004 1.43333 0.933337 1.69333 1.19334Z" fill="black"/>
</svg>
